<mxfile host="app.diagrams.net" modified="2022-03-17T02:03:01.163Z" agent="5.0 (Windows NT 10.0; Win64; x64) AppleWebKit/537.36 (KHTML, like Gecko) Chrome/97.0.4692.71 Safari/537.36" etag="QB2rGvXIXKkKn33ZDkRc" version="17.1.3" type="github">
  <diagram id="8nAGxKZpDkookOthFsFw" name="Page-1">
    <mxGraphModel dx="1038" dy="547" grid="1" gridSize="10" guides="1" tooltips="1" connect="1" arrows="1" fold="1" page="1" pageScale="1" pageWidth="827" pageHeight="1169" math="0" shadow="0">
      <root>
        <mxCell id="0" />
        <mxCell id="1" parent="0" />
        <mxCell id="yLEFyhyYgzXkQ0AleT5w-1" value="" style="shape=table;html=1;whiteSpace=wrap;startSize=0;container=1;collapsible=0;childLayout=tableLayout;" parent="1" vertex="1">
          <mxGeometry x="42" y="43" width="754" height="40" as="geometry" />
        </mxCell>
        <mxCell id="yLEFyhyYgzXkQ0AleT5w-2" value="" style="shape=tableRow;horizontal=0;startSize=0;swimlaneHead=0;swimlaneBody=0;top=0;left=0;bottom=0;right=0;collapsible=0;dropTarget=0;fillColor=none;points=[[0,0.5],[1,0.5]];portConstraint=eastwest;" parent="yLEFyhyYgzXkQ0AleT5w-1" vertex="1">
          <mxGeometry width="754" height="40" as="geometry" />
        </mxCell>
        <mxCell id="yLEFyhyYgzXkQ0AleT5w-3" value="1" style="shape=partialRectangle;html=1;whiteSpace=wrap;connectable=0;fillColor=#ffe6cc;top=0;left=0;bottom=0;right=0;overflow=hidden;strokeColor=#d79b00;" parent="yLEFyhyYgzXkQ0AleT5w-2" vertex="1">
          <mxGeometry width="47" height="40" as="geometry">
            <mxRectangle width="47" height="40" as="alternateBounds" />
          </mxGeometry>
        </mxCell>
        <mxCell id="yLEFyhyYgzXkQ0AleT5w-4" value="2" style="shape=partialRectangle;html=1;whiteSpace=wrap;connectable=0;fillColor=#ffe6cc;top=0;left=0;bottom=0;right=0;overflow=hidden;strokeColor=#d79b00;" parent="yLEFyhyYgzXkQ0AleT5w-2" vertex="1">
          <mxGeometry x="47" width="47" height="40" as="geometry">
            <mxRectangle width="47" height="40" as="alternateBounds" />
          </mxGeometry>
        </mxCell>
        <mxCell id="yLEFyhyYgzXkQ0AleT5w-5" value="3" style="shape=partialRectangle;html=1;whiteSpace=wrap;connectable=0;fillColor=none;top=0;left=0;bottom=0;right=0;overflow=hidden;" parent="yLEFyhyYgzXkQ0AleT5w-2" vertex="1">
          <mxGeometry x="94" width="47" height="40" as="geometry">
            <mxRectangle width="47" height="40" as="alternateBounds" />
          </mxGeometry>
        </mxCell>
        <mxCell id="yLEFyhyYgzXkQ0AleT5w-6" value="4" style="shape=partialRectangle;html=1;whiteSpace=wrap;connectable=0;fillColor=#ffe6cc;top=0;left=0;bottom=0;right=0;overflow=hidden;strokeColor=#d79b00;" parent="yLEFyhyYgzXkQ0AleT5w-2" vertex="1">
          <mxGeometry x="141" width="47" height="40" as="geometry">
            <mxRectangle width="47" height="40" as="alternateBounds" />
          </mxGeometry>
        </mxCell>
        <mxCell id="yLEFyhyYgzXkQ0AleT5w-7" value="5" style="shape=partialRectangle;html=1;whiteSpace=wrap;connectable=0;fillColor=#ffe6cc;top=0;left=0;bottom=0;right=0;overflow=hidden;strokeColor=#d79b00;" parent="yLEFyhyYgzXkQ0AleT5w-2" vertex="1">
          <mxGeometry x="188" width="47" height="40" as="geometry">
            <mxRectangle width="47" height="40" as="alternateBounds" />
          </mxGeometry>
        </mxCell>
        <mxCell id="yLEFyhyYgzXkQ0AleT5w-8" value="6" style="shape=partialRectangle;html=1;whiteSpace=wrap;connectable=0;fillColor=none;top=0;left=0;bottom=0;right=0;overflow=hidden;" parent="yLEFyhyYgzXkQ0AleT5w-2" vertex="1">
          <mxGeometry x="235" width="47" height="40" as="geometry">
            <mxRectangle width="47" height="40" as="alternateBounds" />
          </mxGeometry>
        </mxCell>
        <mxCell id="yLEFyhyYgzXkQ0AleT5w-9" value="7" style="shape=partialRectangle;html=1;whiteSpace=wrap;connectable=0;fillColor=#ffe6cc;top=0;left=0;bottom=0;right=0;overflow=hidden;strokeColor=#d79b00;" parent="yLEFyhyYgzXkQ0AleT5w-2" vertex="1">
          <mxGeometry x="282" width="47" height="40" as="geometry">
            <mxRectangle width="47" height="40" as="alternateBounds" />
          </mxGeometry>
        </mxCell>
        <mxCell id="yLEFyhyYgzXkQ0AleT5w-10" value="8" style="shape=partialRectangle;html=1;whiteSpace=wrap;connectable=0;fillColor=#ffe6cc;top=0;left=0;bottom=0;right=0;overflow=hidden;strokeColor=#d79b00;" parent="yLEFyhyYgzXkQ0AleT5w-2" vertex="1">
          <mxGeometry x="329" width="47" height="40" as="geometry">
            <mxRectangle width="47" height="40" as="alternateBounds" />
          </mxGeometry>
        </mxCell>
        <mxCell id="yLEFyhyYgzXkQ0AleT5w-11" value="9" style="shape=partialRectangle;html=1;whiteSpace=wrap;connectable=0;fillColor=#ffe6cc;top=0;left=0;bottom=0;right=0;overflow=hidden;strokeColor=#d79b00;" parent="yLEFyhyYgzXkQ0AleT5w-2" vertex="1">
          <mxGeometry x="376" width="47" height="40" as="geometry">
            <mxRectangle width="47" height="40" as="alternateBounds" />
          </mxGeometry>
        </mxCell>
        <mxCell id="yLEFyhyYgzXkQ0AleT5w-12" value="10" style="shape=partialRectangle;html=1;whiteSpace=wrap;connectable=0;fillColor=none;top=0;left=0;bottom=0;right=0;overflow=hidden;" parent="yLEFyhyYgzXkQ0AleT5w-2" vertex="1">
          <mxGeometry x="423" width="48" height="40" as="geometry">
            <mxRectangle width="48" height="40" as="alternateBounds" />
          </mxGeometry>
        </mxCell>
        <mxCell id="yLEFyhyYgzXkQ0AleT5w-13" value="11" style="shape=partialRectangle;html=1;whiteSpace=wrap;connectable=0;fillColor=none;top=0;left=0;bottom=0;right=0;overflow=hidden;" parent="yLEFyhyYgzXkQ0AleT5w-2" vertex="1">
          <mxGeometry x="471" width="47" height="40" as="geometry">
            <mxRectangle width="47" height="40" as="alternateBounds" />
          </mxGeometry>
        </mxCell>
        <mxCell id="yLEFyhyYgzXkQ0AleT5w-14" value="12" style="shape=partialRectangle;html=1;whiteSpace=wrap;connectable=0;fillColor=#ffe6cc;top=0;left=0;bottom=0;right=0;overflow=hidden;strokeColor=#d79b00;" parent="yLEFyhyYgzXkQ0AleT5w-2" vertex="1">
          <mxGeometry x="518" width="47" height="40" as="geometry">
            <mxRectangle width="47" height="40" as="alternateBounds" />
          </mxGeometry>
        </mxCell>
        <mxCell id="yLEFyhyYgzXkQ0AleT5w-15" value="13" style="shape=partialRectangle;html=1;whiteSpace=wrap;connectable=0;fillColor=none;top=0;left=0;bottom=0;right=0;overflow=hidden;" parent="yLEFyhyYgzXkQ0AleT5w-2" vertex="1">
          <mxGeometry x="565" width="47" height="40" as="geometry">
            <mxRectangle width="47" height="40" as="alternateBounds" />
          </mxGeometry>
        </mxCell>
        <mxCell id="yLEFyhyYgzXkQ0AleT5w-16" value="14" style="shape=partialRectangle;html=1;whiteSpace=wrap;connectable=0;fillColor=none;top=0;left=0;bottom=0;right=0;overflow=hidden;" parent="yLEFyhyYgzXkQ0AleT5w-2" vertex="1">
          <mxGeometry x="612" width="48" height="40" as="geometry">
            <mxRectangle width="48" height="40" as="alternateBounds" />
          </mxGeometry>
        </mxCell>
        <mxCell id="yLEFyhyYgzXkQ0AleT5w-17" value="15" style="shape=partialRectangle;html=1;whiteSpace=wrap;connectable=0;fillColor=#ffe6cc;top=0;left=0;bottom=0;right=0;overflow=hidden;strokeColor=#d79b00;" parent="yLEFyhyYgzXkQ0AleT5w-2" vertex="1">
          <mxGeometry x="660" width="47" height="40" as="geometry">
            <mxRectangle width="47" height="40" as="alternateBounds" />
          </mxGeometry>
        </mxCell>
        <mxCell id="yLEFyhyYgzXkQ0AleT5w-18" value="16" style="shape=partialRectangle;html=1;whiteSpace=wrap;connectable=0;fillColor=#ffe6cc;top=0;left=0;bottom=0;right=0;overflow=hidden;strokeColor=#d79b00;" parent="yLEFyhyYgzXkQ0AleT5w-2" vertex="1">
          <mxGeometry x="707" width="47" height="40" as="geometry">
            <mxRectangle width="47" height="40" as="alternateBounds" />
          </mxGeometry>
        </mxCell>
        <mxCell id="yLEFyhyYgzXkQ0AleT5w-19" value="" style="shape=table;html=1;whiteSpace=wrap;startSize=0;container=1;collapsible=0;childLayout=tableLayout;" parent="1" vertex="1">
          <mxGeometry x="41" y="109" width="754" height="40" as="geometry" />
        </mxCell>
        <mxCell id="yLEFyhyYgzXkQ0AleT5w-20" value="" style="shape=tableRow;horizontal=0;startSize=0;swimlaneHead=0;swimlaneBody=0;top=0;left=0;bottom=0;right=0;collapsible=0;dropTarget=0;fillColor=none;points=[[0,0.5],[1,0.5]];portConstraint=eastwest;" parent="yLEFyhyYgzXkQ0AleT5w-19" vertex="1">
          <mxGeometry width="754" height="40" as="geometry" />
        </mxCell>
        <mxCell id="yLEFyhyYgzXkQ0AleT5w-21" value="1" style="shape=partialRectangle;html=1;whiteSpace=wrap;connectable=0;fillColor=none;top=0;left=0;bottom=0;right=0;overflow=hidden;" parent="yLEFyhyYgzXkQ0AleT5w-20" vertex="1">
          <mxGeometry width="47" height="40" as="geometry">
            <mxRectangle width="47" height="40" as="alternateBounds" />
          </mxGeometry>
        </mxCell>
        <mxCell id="yLEFyhyYgzXkQ0AleT5w-22" value="2" style="shape=partialRectangle;html=1;whiteSpace=wrap;connectable=0;fillColor=#ffe6cc;top=0;left=0;bottom=0;right=0;overflow=hidden;strokeColor=#d79b00;" parent="yLEFyhyYgzXkQ0AleT5w-20" vertex="1">
          <mxGeometry x="47" width="47" height="40" as="geometry">
            <mxRectangle width="47" height="40" as="alternateBounds" />
          </mxGeometry>
        </mxCell>
        <mxCell id="yLEFyhyYgzXkQ0AleT5w-23" value="3" style="shape=partialRectangle;html=1;whiteSpace=wrap;connectable=0;fillColor=#ffe6cc;top=0;left=0;bottom=0;right=0;overflow=hidden;strokeColor=#d79b00;" parent="yLEFyhyYgzXkQ0AleT5w-20" vertex="1">
          <mxGeometry x="94" width="47" height="40" as="geometry">
            <mxRectangle width="47" height="40" as="alternateBounds" />
          </mxGeometry>
        </mxCell>
        <mxCell id="yLEFyhyYgzXkQ0AleT5w-24" value="4" style="shape=partialRectangle;html=1;whiteSpace=wrap;connectable=0;fillColor=#ffe6cc;top=0;left=0;bottom=0;right=0;overflow=hidden;strokeColor=#d79b00;" parent="yLEFyhyYgzXkQ0AleT5w-20" vertex="1">
          <mxGeometry x="141" width="47" height="40" as="geometry">
            <mxRectangle width="47" height="40" as="alternateBounds" />
          </mxGeometry>
        </mxCell>
        <mxCell id="yLEFyhyYgzXkQ0AleT5w-25" value="5" style="shape=partialRectangle;html=1;whiteSpace=wrap;connectable=0;fillColor=none;top=0;left=0;bottom=0;right=0;overflow=hidden;" parent="yLEFyhyYgzXkQ0AleT5w-20" vertex="1">
          <mxGeometry x="188" width="47" height="40" as="geometry">
            <mxRectangle width="47" height="40" as="alternateBounds" />
          </mxGeometry>
        </mxCell>
        <mxCell id="yLEFyhyYgzXkQ0AleT5w-26" value="6" style="shape=partialRectangle;html=1;whiteSpace=wrap;connectable=0;fillColor=none;top=0;left=0;bottom=0;right=0;overflow=hidden;" parent="yLEFyhyYgzXkQ0AleT5w-20" vertex="1">
          <mxGeometry x="235" width="47" height="40" as="geometry">
            <mxRectangle width="47" height="40" as="alternateBounds" />
          </mxGeometry>
        </mxCell>
        <mxCell id="yLEFyhyYgzXkQ0AleT5w-27" value="7" style="shape=partialRectangle;html=1;whiteSpace=wrap;connectable=0;fillColor=none;top=0;left=0;bottom=0;right=0;overflow=hidden;" parent="yLEFyhyYgzXkQ0AleT5w-20" vertex="1">
          <mxGeometry x="282" width="47" height="40" as="geometry">
            <mxRectangle width="47" height="40" as="alternateBounds" />
          </mxGeometry>
        </mxCell>
        <mxCell id="yLEFyhyYgzXkQ0AleT5w-28" value="8" style="shape=partialRectangle;html=1;whiteSpace=wrap;connectable=0;fillColor=#ffe6cc;top=0;left=0;bottom=0;right=0;overflow=hidden;strokeColor=#d79b00;" parent="yLEFyhyYgzXkQ0AleT5w-20" vertex="1">
          <mxGeometry x="329" width="47" height="40" as="geometry">
            <mxRectangle width="47" height="40" as="alternateBounds" />
          </mxGeometry>
        </mxCell>
        <mxCell id="yLEFyhyYgzXkQ0AleT5w-29" value="9" style="shape=partialRectangle;html=1;whiteSpace=wrap;connectable=0;fillColor=none;top=0;left=0;bottom=0;right=0;overflow=hidden;" parent="yLEFyhyYgzXkQ0AleT5w-20" vertex="1">
          <mxGeometry x="376" width="47" height="40" as="geometry">
            <mxRectangle width="47" height="40" as="alternateBounds" />
          </mxGeometry>
        </mxCell>
        <mxCell id="yLEFyhyYgzXkQ0AleT5w-30" value="10" style="shape=partialRectangle;html=1;whiteSpace=wrap;connectable=0;fillColor=none;top=0;left=0;bottom=0;right=0;overflow=hidden;" parent="yLEFyhyYgzXkQ0AleT5w-20" vertex="1">
          <mxGeometry x="423" width="48" height="40" as="geometry">
            <mxRectangle width="48" height="40" as="alternateBounds" />
          </mxGeometry>
        </mxCell>
        <mxCell id="yLEFyhyYgzXkQ0AleT5w-31" value="11" style="shape=partialRectangle;html=1;whiteSpace=wrap;connectable=0;fillColor=#ffe6cc;top=0;left=0;bottom=0;right=0;overflow=hidden;strokeColor=#d79b00;" parent="yLEFyhyYgzXkQ0AleT5w-20" vertex="1">
          <mxGeometry x="471" width="47" height="40" as="geometry">
            <mxRectangle width="47" height="40" as="alternateBounds" />
          </mxGeometry>
        </mxCell>
        <mxCell id="yLEFyhyYgzXkQ0AleT5w-32" value="12" style="shape=partialRectangle;html=1;whiteSpace=wrap;connectable=0;fillColor=none;top=0;left=0;bottom=0;right=0;overflow=hidden;" parent="yLEFyhyYgzXkQ0AleT5w-20" vertex="1">
          <mxGeometry x="518" width="47" height="40" as="geometry">
            <mxRectangle width="47" height="40" as="alternateBounds" />
          </mxGeometry>
        </mxCell>
        <mxCell id="yLEFyhyYgzXkQ0AleT5w-33" value="13" style="shape=partialRectangle;html=1;whiteSpace=wrap;connectable=0;fillColor=none;top=0;left=0;bottom=0;right=0;overflow=hidden;" parent="yLEFyhyYgzXkQ0AleT5w-20" vertex="1">
          <mxGeometry x="565" width="47" height="40" as="geometry">
            <mxRectangle width="47" height="40" as="alternateBounds" />
          </mxGeometry>
        </mxCell>
        <mxCell id="yLEFyhyYgzXkQ0AleT5w-34" value="14" style="shape=partialRectangle;html=1;whiteSpace=wrap;connectable=0;fillColor=#ffe6cc;top=0;left=0;bottom=0;right=0;overflow=hidden;strokeColor=#d79b00;" parent="yLEFyhyYgzXkQ0AleT5w-20" vertex="1">
          <mxGeometry x="612" width="48" height="40" as="geometry">
            <mxRectangle width="48" height="40" as="alternateBounds" />
          </mxGeometry>
        </mxCell>
        <mxCell id="yLEFyhyYgzXkQ0AleT5w-35" value="15" style="shape=partialRectangle;html=1;whiteSpace=wrap;connectable=0;fillColor=#ffe6cc;top=0;left=0;bottom=0;right=0;overflow=hidden;strokeColor=#d79b00;" parent="yLEFyhyYgzXkQ0AleT5w-20" vertex="1">
          <mxGeometry x="660" width="47" height="40" as="geometry">
            <mxRectangle width="47" height="40" as="alternateBounds" />
          </mxGeometry>
        </mxCell>
        <mxCell id="yLEFyhyYgzXkQ0AleT5w-36" value="16" style="shape=partialRectangle;html=1;whiteSpace=wrap;connectable=0;fillColor=#ffe6cc;top=0;left=0;bottom=0;right=0;overflow=hidden;strokeColor=#d79b00;" parent="yLEFyhyYgzXkQ0AleT5w-20" vertex="1">
          <mxGeometry x="707" width="47" height="40" as="geometry">
            <mxRectangle width="47" height="40" as="alternateBounds" />
          </mxGeometry>
        </mxCell>
      </root>
    </mxGraphModel>
  </diagram>
</mxfile>
